<svg xmlns="http://www.w3.org/2000/svg" width="118.5" height="116.1" viewBox="0 0 118.5 116.1"><path fill="#E6E7E8" d="M50.8 3.5c4.7-4.7 12.3-4.7 17 0l4.2 4.3c4.7 4.7 13.9 9.1 20.4 9.8l6 .7c6.6.8 11.3 6.7 10.6 13.3l-.7 6c-.7 6.6 1.5 16.5 5 22.1l3.2 5.1c3.5 5.6 1.8 13.1-3.8 16.6l-5.1 3.2c-5.6 3.5-11.9 11.5-14.1 17.7l-2 5.7c-2.2 6.2-9.1 9.5-15.3 7.4l-5.7-2c-6.2-2.2-16.4-2.2-22.7 0l-5.7 2c-6.2 2.2-13.1-1.2-15.3-7.4l-2-5.7c-2.2-6.2-8.6-14.2-14.1-17.7l-5.1-3.2c-5.6-3.5-7.3-11-3.8-16.6l3.2-5.1c3.5-5.6 5.8-15.5 5-22.1l-.7-6c-.6-6.6 4.2-12.6 10.7-13.3l6-.7c6.6-.8 15.7-5.2 20.4-9.8l4.4-4.3z"/><path fill="#A7A9AC" d="M72.4 8.1c-.1-.1-.2-.2-.4-.3l-1-1.1-7.1 7.7c-1.2 1.4-2.9 2.1-4.7 2.1-1.8 0-3.4-.7-4.7-2.1l-7.1-7.7-.9.9-.5.5 7.1 7.6c1.6 1.8 3.8 2.7 6.1 2.7s4.5-1 6.2-2.8l7-7.5zM59.3 103c6 0 10.9-4.9 10.9-10.9h-21.9c0 6 4.9 10.9 11 10.9z"/><path fill="#939598" d="M63.3 92.1c0 4.8-3.1 8.9-7.5 10.3 1.1.4 2.2.6 3.5.6 6 0 10.9-4.9 10.9-10.9h-6.9zM49.1 96h20.3c.5-1.2.7-2.5.7-3.9h-21.8c0 1.4.3 2.7.8 3.9z"/><path fill="#BCBEC0" d="M59.3 19c-4.4 0-8 3.6-8 8v4h4v-4c0-2.2 1.8-4 4-4s4 1.8 4 4v4h4v-4c0-4.4-3.6-8-8-8zM95 87c-.5-1.9-2.1-3.5-4.1-3.9-.5-.5-1.6-1.6-2.5-3.5-.5-1.1-1-2.7-1.4-4.8 0-.3-.1-.5-.2-.7-.7-4.1-1.4-10.1-1.4-18.9v-.30000000000000004c0-14.5-11.7-26.2-26.2-26.2s-26.1 11.7-26.1 26.1v.4c0 8.8-.6 14.8-1.5 18.9-.1.2-.1.4-.2.7-.5 2.1-1 3.7-1.4 4.8-.9 1.9-1.9 3-2.5 3.5-2 .4-3.6 1.9-4.1 3.9h71.6z"/><path fill="#A7A9AC" d="M90.9 83.1c-.5-.5-1.6-1.6-2.5-3.5-.5-1.1-1-2.7-1.4-4.8 0-.3-.1-.5-.2-.7-.7-4.1-1.4-10.1-1.4-18.9v-.30000000000000004c0-14.5-11.7-26.2-26.2-26.2-2.8 0-5.4.4-7.9 1.2 10.6 3.3 18.3 13.3 18.3 25v.30000000000000004c0 8.8.6 14.8 1.5 18.9.1.2.1.4.2.7.5 2.1 1 3.7 1.4 4.8.9 1.9 1.9 3 2.5 3.5 2 .4 3.6 1.9 4.1 3.9h15.7c-.5-1.9-2.1-3.4-4.1-3.9z"/><path fill="#D1D3D4" d="M89.3 82h-60c-3.3 0-6 2.7-6 6s2.7 6 6 6h60c3.3 0 6-2.7 6-6s-2.7-6-6-6z"/><path fill="#BCBEC0" d="M89.3 82h-12c3.3 0 6 2.7 6 6s-2.7 6-6 6h12c3.3 0 6-2.7 6-6s-2.7-6-6-6z"/><ellipse transform="matrix(-.707 -.707 .707 -.707 50.831 115.102)" fill="#D1D3D4" cx="49.3" cy="47" rx="6" ry="8"/><circle fill="#D1D3D4" cx="57.3" cy="57" r="3"/><path fill="#939598" d="M59.8 96s3.5-.2 1.5 2.3l2.3-1.6-.6-1.7-3.2 1z"/><path fill="#D1D3D4" d="M59.3 27c-1.7 0-3-1.3-3-3v-6c0-1.7 1.3-3 3-3s3 1.3 3 3v6c0 1.7-1.4 3-3 3z"/><path fill="#fff" d="M40.8 74.7c-.2-1-.6-1-.9 0l-.9 3.8c-.2 1-1.2 1.9-2.2 2.2l-3.7.9c-1 .2-1 .6 0 .9l3.7.9c1 .2 1.9 1.2 2.2 2.2l.9 3.7c.2 1 .6 1 .9 0l.9-3.7c.2-1 1.2-1.9 2.2-2.2l3.7-.9c1-.2 1-.6 0-.9l-3.7-.9c-1-.2-1.9-1.2-2.2-2.2l-.9-3.8zM80.4 33.6c-.2-.7-.5-.7-.7 0l-.7 2.8c-.2.7-.9 1.5-1.6 1.6l-2.8.7c-.7.2-.7.5 0 .7l2.8.7c.7.2 1.5.9 1.6 1.6l.7 2.8c.2.7.5.7.7 0l.7-2.8c.2-.7.9-1.5 1.6-1.6l2.8-.7c.7-.2.7-.5 0-.7l-2.8-.7c-.7-.2-1.5-.9-1.6-1.6l-.7-2.8zM23.3 51.4c-.1-.5-.3-.5-.4 0l-.5 1.9c-.1.5-.6 1-1.1 1.1l-1.9.5c-.5.1-.5.3 0 .4l1.9.5c.5.1 1 .6 1.1 1.1l.5 1.9c.1.5.3.5.4 0l.5-1.9c.1-.5.6-1 1.1-1.1l1.9-.5c.5-.1.5-.3 0-.4l-1.9-.5c-.5-.1-1-.6-1.1-1.1l-.5-1.9z"/></svg>