<svg xmlns="http://www.w3.org/2000/svg" width="216" height="17.4" viewBox="0 0 216 17.4"><path fill="#fff" d="M6.4 9c2.2 0 3.6-1.2 3.6-3 0-2-1.4-3-3.6-3h-3.4v6h3.4zm-6.4-8.8h6.6c3.9 0 6.4 2.2 6.4 5.6 0 3.8-3 5.8-6.7 5.8h-3.3v5.4h-3v-16.8zM20.4.2h3v14.2h8.8v2.7h-11.8z"/><g fill="#fff"><path d="M38.9 9.9v-9.7h3v9.6c0 3.1 1.6 4.8 4.3 4.8 2.6 0 4.2-1.6 4.2-4.7v-9.7h3v9.6c0 5-2.8 7.6-7.2 7.6-4.5 0-7.3-2.6-7.3-7.5"/><path d="M69 8.6c2.1 0 3.5-1.1 3.5-2.8 0-1.8-1.3-2.8-3.5-2.8h-4.3v5.7h4.3zm-7.3-8.4h7.5c2.1 0 3.8.6 4.9 1.7.9.9 1.4 2.2 1.4 3.6 0 2.8-1.7 4.4-4 5.1l4.6 6.4h-3.5l-4.1-5.9h-3.7v5.9h-3v-16.8z"/></g><path fill="#fff" d="M93.6 10.4l-2.9-6.7-2.9 6.7h5.8zm-4.2-10.3h2.7l7.4 17h-3.1l-1.7-4.1h-8l-1.7 4.1h-3l7.4-17zM106.8.2h2.9v14.2h8.9v2.7h-11.8zM124.9 14.6l1.8-2.1c1.6 1.4 3.2 2.2 5.3 2.2 1.8 0 3-.8 3-2.1 0-1.2-.7-1.9-3.8-2.6-3.6-.9-5.6-1.9-5.6-5 0-2.9 2.4-4.9 5.8-4.9 2.5 0 4.4.7 6.1 2.1l-1.6 2.2c-1.5-1.1-3-1.7-4.6-1.7-1.7 0-2.7.9-2.7 2 0 1.3.8 1.9 4 2.6 3.6.9 5.4 2.1 5.4 4.9 0 3.2-2.5 5-6 5-2.7.1-5.1-.8-7.1-2.6"/><path fill="#fff" d="M145.9.2h3v16.9h-3zM157 8.7c0-4.8 3.6-8.8 8.7-8.8 2.9 0 4.7.8 6.5 2.3l-1.9 2.2c-1.3-1.1-2.6-1.8-4.7-1.8-3.1 0-5.5 2.7-5.5 5.9 0 3.5 2.3 6 5.7 6 1.6 0 3-.5 4.1-1.3v-3.2h-4.3v-2.3h7.2v7.1c-1.7 1.4-4 2.6-7 2.6-5.4 0-8.8-3.8-8.8-8.7"/><path fill="#fff" d="M180.9.2h3v7h8v-7h3v16.9h-3v-7.1h-8v7.1h-3zM202.3.2v2.8h5.4v14.1h3v-14.1h5.3v-2.8z"/></svg>